<svg width="50" height="50" viewBox="0 0 50 50" fill="none" xmlns="http://www.w3.org/2000/svg">
<path d="M34.5832 12.125C33.1594 10.499 32.3746 8.41125 32.3748 6.25H25.9373V32.0833C25.8887 33.4816 25.2988 34.8064 24.2921 35.7781C23.2855 36.7498 21.9407 37.2925 20.5415 37.2917C17.5832 37.2917 15.1248 34.875 15.1248 31.875C15.1248 28.2917 18.5832 25.6042 22.1457 26.7083V20.125C14.9582 19.1667 8.6665 24.75 8.6665 31.875C8.6665 38.8125 14.4165 43.75 20.5207 43.75C27.0623 43.75 32.3748 38.4375 32.3748 31.875V18.7708C34.9853 20.6455 38.1193 21.6513 41.3332 21.6458V15.2083C41.3332 15.2083 37.4165 15.3958 34.5832 12.125Z" fill="#EDA28F"/>
</svg>
