<svg width="50" height="50" viewBox="0 0 50 50" fill="none" xmlns="http://www.w3.org/2000/svg">
<path d="M25.0019 18.7498C23.3443 18.7498 21.7546 19.4083 20.5825 20.5804C19.4104 21.7525 18.7519 23.3422 18.7519 24.9998C18.7519 26.6574 19.4104 28.2472 20.5825 29.4193C21.7546 30.5914 23.3443 31.2498 25.0019 31.2498C26.6595 31.2498 28.2492 30.5914 29.4213 29.4193C30.5934 28.2472 31.2519 26.6574 31.2519 24.9998C31.2519 23.3422 30.5934 21.7525 29.4213 20.5804C28.2492 19.4083 26.6595 18.7498 25.0019 18.7498ZM25.0019 14.5832C27.7646 14.5832 30.4141 15.6806 32.3676 17.6341C34.3211 19.5876 35.4186 22.2372 35.4186 24.9998C35.4186 27.7625 34.3211 30.412 32.3676 32.3655C30.4141 34.319 27.7646 35.4165 25.0019 35.4165C22.2393 35.4165 19.5897 34.319 17.6362 32.3655C15.6827 30.412 14.5853 27.7625 14.5853 24.9998C14.5853 22.2372 15.6827 19.5876 17.6362 17.6341C19.5897 15.6806 22.2393 14.5832 25.0019 14.5832ZM38.5436 14.0623C38.5436 14.753 38.2692 15.4154 37.7808 15.9038C37.2925 16.3921 36.6301 16.6665 35.9394 16.6665C35.2488 16.6665 34.5864 16.3921 34.098 15.9038C33.6096 15.4154 33.3353 14.753 33.3353 14.0623C33.3353 13.3717 33.6096 12.7093 34.098 12.2209C34.5864 11.7325 35.2488 11.4582 35.9394 11.4582C36.6301 11.4582 37.2925 11.7325 37.7808 12.2209C38.2692 12.7093 38.5436 13.3717 38.5436 14.0623ZM25.0019 8.33317C19.8478 8.33317 19.0061 8.34775 16.6082 8.454C14.9748 8.53109 13.879 8.74984 12.8623 9.14567C12.012 9.45894 11.243 9.95949 10.6123 10.6103C9.96082 11.2407 9.45955 12.0097 9.14567 12.8603C8.74984 13.8811 8.53109 14.9748 8.45609 16.6061C8.34775 18.9061 8.33317 19.7103 8.33317 24.9998C8.33317 30.1561 8.34775 30.9957 8.454 33.3936C8.53109 35.0248 8.74984 36.1228 9.14359 37.1373C9.49775 38.0436 9.91442 38.6957 10.6061 39.3873C11.3082 40.0873 11.9603 40.5061 12.8561 40.8519C13.8853 41.2498 14.9811 41.4707 16.6061 41.5457C18.9061 41.654 19.7103 41.6665 24.9998 41.6665C30.1561 41.6665 30.9957 41.6519 33.3936 41.5457C35.0228 41.4686 36.1186 41.2498 37.1373 40.8561C37.9877 40.5428 38.7567 40.0423 39.3873 39.3915C40.0894 38.6915 40.5082 38.0394 40.854 37.1415C41.2498 36.1165 41.4707 35.0207 41.5457 33.3915C41.654 31.0936 41.6665 30.2873 41.6665 24.9998C41.6665 19.8457 41.6519 19.004 41.5457 16.6061C41.4686 14.9769 41.2478 13.8769 40.854 12.8603C40.5407 12.0099 40.0402 11.2409 39.3894 10.6103C38.759 9.95874 37.99 9.45747 37.1394 9.14359C36.1186 8.74775 35.0228 8.529 33.3936 8.454C31.0957 8.34567 30.2915 8.33317 24.9998 8.33317M24.9998 4.1665C30.6603 4.1665 31.3665 4.18734 33.5894 4.2915C35.8061 4.39567 37.3186 4.74359 38.6457 5.26025C40.0207 5.78942 41.179 6.50609 42.3373 7.66234C43.3971 8.70345 44.2169 9.96332 44.7394 11.354C45.254 12.6811 45.604 14.1936 45.7082 16.4123C45.8061 18.6332 45.8332 19.3394 45.8332 24.9998C45.8332 30.6603 45.8123 31.3665 45.7082 33.5873C45.604 35.8082 45.254 37.3165 44.7394 38.6457C44.2169 40.0364 43.3971 41.2962 42.3373 42.3373C41.2962 43.3971 40.0364 44.2169 38.6457 44.7394C37.3186 45.254 35.8061 45.604 33.5894 45.7082C31.3665 45.8061 30.6603 45.8332 24.9998 45.8332C19.3394 45.8332 18.6332 45.8123 16.4103 45.7082C14.1936 45.604 12.6832 45.254 11.354 44.7394C9.96332 44.2169 8.70345 43.3971 7.66234 42.3373C6.60256 41.2962 5.78279 40.0364 5.26025 38.6457C4.74359 37.3186 4.39567 35.8061 4.2915 33.5873C4.1915 31.3665 4.1665 30.6603 4.1665 24.9998C4.1665 19.3394 4.18734 18.6332 4.2915 16.4123C4.39567 14.1915 4.74359 12.6832 5.26025 11.354C5.78279 9.96332 6.60256 8.70345 7.66234 7.66234C8.70345 6.60256 9.96332 5.78279 11.354 5.26025C12.6811 4.74359 14.1915 4.39567 16.4103 4.2915C18.6353 4.19359 19.3415 4.1665 25.0019 4.1665" fill="#EDA28F"/>
</svg>
